<?xml version="1.0" standalone="no"?>
<!DOCTYPE svg PUBLIC "-//W3C//DTD SVG 20010904//EN"
 "http://www.w3.org/TR/2001/REC-SVG-20010904/DTD/svg10.dtd">
<svg version="1.0" xmlns="http://www.w3.org/2000/svg"
 width="214.000000pt" height="214.000000pt" viewBox="0 0 214.000000 214.000000"
 preserveAspectRatio="xMidYMid meet">
<metadata>
Created by potrace 1.14, written by Peter Selinger 2001-2017
</metadata>
<g transform="translate(0.000000,214.000000) scale(0.100000,-0.100000)"
fill="#000000" stroke="none">
<path d="M257 2094 c-15 -15 8 -24 64 -24 l59 0 0 -460 0 -460 -60 0 c-33 0
-60 -4 -60 -10 0 -6 70 -10 190 -10 120 0 190 4 190 10 0 6 -27 10 -60 10
l-60 0 0 240 0 240 64 0 c105 0 134 -21 150 -112 4 -21 11 -38 16 -38 6 0 10
65 10 160 0 95 -4 160 -10 160 -5 0 -12 -17 -16 -37 -9 -50 -30 -90 -53 -103
-11 -5 -51 -10 -90 -10 l-71 0 0 210 0 210 131 0 c114 0 136 -3 164 -20 41
-25 82 -101 91 -168 12 -93 24 -55 24 77 0 108 -3 130 -16 135 -21 8 -649 8
-657 0z"/>
<path d="M1037 2094 c-15 -15 8 -24 64 -24 l59 0 0 -460 0 -460 -65 0 c-37 0
-65 -4 -65 -10 0 -6 88 -10 243 -10 260 0 312 7 405 54 54 28 141 115 170 172
105 206 69 479 -81 621 -111 105 -182 123 -498 123 -124 0 -229 -3 -232 -6z
m515 -36 c92 -27 164 -131 189 -272 18 -108 7 -345 -20 -425 -33 -96 -71 -145
-137 -177 -50 -24 -72 -28 -171 -32 l-113 -5 0 462 0 461 106 0 c59 0 124 -5
146 -12z"/>
<path d="M1363 523 l-158 -478 -62 -3 c-35 -2 -63 -7 -63 -12 0 -6 65 -10 160
-10 96 0 160 4 160 10 0 5 -38 11 -84 12 l-85 3 45 138 45 138 146 -3 146 -3
44 -130 c23 -71 43 -133 43 -137 0 -4 -31 -8 -70 -8 -40 0 -70 -4 -70 -10 0
-6 77 -10 210 -10 133 0 210 4 210 10 0 6 -28 10 -63 10 l-63 0 -158 480 c-87
264 -161 480 -166 480 -5 0 -80 -215 -167 -477z m172 26 c36 -106 65 -197 65
-201 0 -4 -61 -8 -136 -8 -105 0 -135 3 -131 13 2 6 33 98 68 204 35 106 65
191 66 189 2 -2 33 -90 68 -197z"/>
<path d="M160 975 c0 -10 16 -15 61 -17 l62 -3 160 -473 c121 -359 163 -472
175 -470 10 2 63 154 166 475 l151 473 53 0 c40 0 52 4 52 15 0 13 -18 15
-125 13 -75 -2 -125 -7 -125 -13 0 -5 25 -11 55 -13 30 -2 55 -7 55 -12 0 -14
-222 -704 -229 -712 -5 -6 -232 641 -249 709 -3 10 13 13 57 13 48 0 61 3 61
15 0 13 -28 15 -190 15 -159 0 -190 -2 -190 -15z"/>
</g>
</svg>
